<mxfile host="app.diagrams.net" agent="Mozilla/5.0 (Windows NT 10.0; Win64; x64) AppleWebKit/537.36 (KHTML, like Gecko) Chrome/131.0.0.0 Safari/537.36 Edg/131.0.0.0" version="24.9.3">
  <diagram name="Page-1" id="13e1069c-82ec-6db2-03f1-153e76fe0fe0">
    <mxGraphModel dx="1285" dy="596" grid="0" gridSize="10" guides="1" tooltips="1" connect="1" arrows="1" fold="1" page="1" pageScale="1" pageWidth="1100" pageHeight="850" background="none" math="0" shadow="0">
      <root>
        <mxCell id="0" />
        <mxCell id="1" parent="0" />
        <mxCell id="HwkZCbod2WU7sO3Ijh1S-42" value="" style="html=1;verticalAlign=bottom;endArrow=block;labelBackgroundColor=none;fontFamily=Verdana;fontSize=12;elbow=vertical;edgeStyle=orthogonalEdgeStyle;curved=1;" parent="1" edge="1">
          <mxGeometry x="0.0046" y="9" relative="1" as="geometry">
            <mxPoint x="450" y="436" as="sourcePoint" />
            <mxPoint x="455.00380952380965" y="475.43" as="targetPoint" />
            <Array as="points">
              <mxPoint x="516" y="436" />
              <mxPoint x="516" y="475" />
            </Array>
            <mxPoint as="offset" />
          </mxGeometry>
        </mxCell>
        <mxCell id="HwkZCbod2WU7sO3Ijh1S-43" value="&lt;font style=&quot;font-size: 10px;&quot; face=&quot;Verdana&quot;&gt;&lt;span style=&quot;background-color: rgb(251, 251, 251);&quot;&gt;判断报文Guid在白名单中，&lt;/span&gt;&lt;/font&gt;&lt;div&gt;&lt;font style=&quot;font-size: 10px;&quot; face=&quot;Verdana&quot;&gt;&lt;span style=&quot;background-color: rgb(251, 251, 251);&quot;&gt;接收消息&lt;/span&gt;&lt;/font&gt;&lt;/div&gt;" style="edgeLabel;html=1;align=center;verticalAlign=middle;resizable=0;points=[];" parent="HwkZCbod2WU7sO3Ijh1S-42" vertex="1" connectable="0">
          <mxGeometry x="0.0003" y="-2" relative="1" as="geometry">
            <mxPoint x="10" as="offset" />
          </mxGeometry>
        </mxCell>
        <mxCell id="7baba1c4bc27f4b0-39" value="" style="html=1;verticalAlign=bottom;endArrow=block;labelBackgroundColor=none;fontFamily=Verdana;fontSize=12;elbow=vertical;edgeStyle=orthogonalEdgeStyle;curved=1;" parent="1" source="7baba1c4bc27f4b0-3" edge="1">
          <mxGeometry x="0.0046" y="9" relative="1" as="geometry">
            <mxPoint x="453.15999999999985" y="348.99600000000015" as="sourcePoint" />
            <mxPoint x="455.00380952380965" y="394.43" as="targetPoint" />
            <Array as="points">
              <mxPoint x="516" y="355" />
              <mxPoint x="516" y="394" />
            </Array>
            <mxPoint as="offset" />
          </mxGeometry>
        </mxCell>
        <mxCell id="HwkZCbod2WU7sO3Ijh1S-34" value="&lt;span style=&quot;font-family: Verdana; background-color: rgb(251, 251, 251);&quot;&gt;&lt;font style=&quot;font-size: 11px;&quot;&gt;将Guid载入到Map中&lt;/font&gt;&lt;/span&gt;" style="edgeLabel;html=1;align=center;verticalAlign=middle;resizable=0;points=[];" parent="7baba1c4bc27f4b0-39" vertex="1" connectable="0">
          <mxGeometry x="0.0003" y="-2" relative="1" as="geometry">
            <mxPoint x="10" as="offset" />
          </mxGeometry>
        </mxCell>
        <mxCell id="7baba1c4bc27f4b0-3" value="DDS授权订阅者" style="shape=umlLifeline;perimeter=lifelinePerimeter;whiteSpace=wrap;html=1;container=1;collapsible=0;recursiveResize=0;outlineConnect=0;rounded=1;shadow=0;comic=0;labelBackgroundColor=none;strokeWidth=1;fontFamily=Verdana;fontSize=12;align=center;" parent="1" vertex="1">
          <mxGeometry x="400" y="80" width="100" height="510" as="geometry" />
        </mxCell>
        <mxCell id="7baba1c4bc27f4b0-13" value="" style="html=1;points=[];perimeter=orthogonalPerimeter;rounded=0;shadow=0;comic=0;labelBackgroundColor=none;strokeWidth=1;fontFamily=Verdana;fontSize=12;align=center;" parent="7baba1c4bc27f4b0-3" vertex="1">
          <mxGeometry x="45" y="70" width="10" height="50" as="geometry" />
        </mxCell>
        <mxCell id="HwkZCbod2WU7sO3Ijh1S-1" value="" style="endArrow=classic;startArrow=classic;html=1;rounded=0;entryX=0.5;entryY=0.043;entryDx=0;entryDy=0;entryPerimeter=0;" parent="7baba1c4bc27f4b0-3" edge="1">
          <mxGeometry width="50" height="50" relative="1" as="geometry">
            <mxPoint x="45" y="80" as="sourcePoint" />
            <mxPoint x="-105" y="79.89000000000004" as="targetPoint" />
          </mxGeometry>
        </mxCell>
        <mxCell id="HwkZCbod2WU7sO3Ijh1S-2" value="SPDP" style="edgeLabel;html=1;align=center;verticalAlign=middle;resizable=0;points=[];" parent="HwkZCbod2WU7sO3Ijh1S-1" vertex="1" connectable="0">
          <mxGeometry x="0.0523" y="-1" relative="1" as="geometry">
            <mxPoint as="offset" />
          </mxGeometry>
        </mxCell>
        <mxCell id="HwkZCbod2WU7sO3Ijh1S-3" value="" style="endArrow=classic;startArrow=classic;html=1;rounded=0;entryX=0.5;entryY=0.043;entryDx=0;entryDy=0;entryPerimeter=0;" parent="7baba1c4bc27f4b0-3" edge="1">
          <mxGeometry width="50" height="50" relative="1" as="geometry">
            <mxPoint x="45" y="107.11000000000001" as="sourcePoint" />
            <mxPoint x="-105" y="107.00000000000006" as="targetPoint" />
          </mxGeometry>
        </mxCell>
        <mxCell id="HwkZCbod2WU7sO3Ijh1S-4" value="SEDP" style="edgeLabel;html=1;align=center;verticalAlign=middle;resizable=0;points=[];" parent="HwkZCbod2WU7sO3Ijh1S-3" vertex="1" connectable="0">
          <mxGeometry x="0.0523" y="-1" relative="1" as="geometry">
            <mxPoint as="offset" />
          </mxGeometry>
        </mxCell>
        <mxCell id="HwkZCbod2WU7sO3Ijh1S-33" value="" style="html=1;points=[];perimeter=orthogonalPerimeter;rounded=0;shadow=0;comic=0;labelBackgroundColor=none;strokeWidth=1;fontFamily=Verdana;fontSize=12;align=center;" parent="7baba1c4bc27f4b0-3" vertex="1">
          <mxGeometry x="45" y="262" width="10" height="143" as="geometry" />
        </mxCell>
        <mxCell id="HwkZCbod2WU7sO3Ijh1S-38" value="" style="endArrow=classic;html=1;rounded=0;" parent="7baba1c4bc27f4b0-3" edge="1">
          <mxGeometry width="50" height="50" relative="1" as="geometry">
            <mxPoint x="-103.39999999999998" y="333.16" as="sourcePoint" />
            <mxPoint x="45" y="333.16" as="targetPoint" />
          </mxGeometry>
        </mxCell>
        <mxCell id="HwkZCbod2WU7sO3Ijh1S-39" value="发送Data数据" style="edgeLabel;html=1;align=center;verticalAlign=middle;resizable=0;points=[];" parent="HwkZCbod2WU7sO3Ijh1S-38" vertex="1" connectable="0">
          <mxGeometry x="-0.0165" y="-1" relative="1" as="geometry">
            <mxPoint as="offset" />
          </mxGeometry>
        </mxCell>
        <mxCell id="HwkZCbod2WU7sO3Ijh1S-40" value="" style="endArrow=classic;html=1;rounded=0;" parent="1" edge="1">
          <mxGeometry width="50" height="50" relative="1" as="geometry">
            <mxPoint x="289.81034482758605" y="499" as="sourcePoint" />
            <mxPoint x="607" y="499" as="targetPoint" />
          </mxGeometry>
        </mxCell>
        <mxCell id="HwkZCbod2WU7sO3Ijh1S-41" value="发送Data数据" style="edgeLabel;html=1;align=center;verticalAlign=middle;resizable=0;points=[];" parent="HwkZCbod2WU7sO3Ijh1S-40" vertex="1" connectable="0">
          <mxGeometry x="-0.0165" y="-1" relative="1" as="geometry">
            <mxPoint as="offset" />
          </mxGeometry>
        </mxCell>
        <mxCell id="7baba1c4bc27f4b0-2" value="DDS发布者" style="shape=umlLifeline;perimeter=lifelinePerimeter;whiteSpace=wrap;html=1;container=1;collapsible=0;recursiveResize=0;outlineConnect=0;rounded=1;shadow=0;comic=0;labelBackgroundColor=none;strokeWidth=1;fontFamily=Verdana;fontSize=12;align=center;" parent="1" vertex="1">
          <mxGeometry x="240" y="80" width="100" height="510" as="geometry" />
        </mxCell>
        <mxCell id="7baba1c4bc27f4b0-10" value="" style="html=1;points=[];perimeter=orthogonalPerimeter;rounded=0;shadow=0;comic=0;labelBackgroundColor=none;strokeWidth=1;fontFamily=Verdana;fontSize=12;align=center;" parent="7baba1c4bc27f4b0-2" vertex="1">
          <mxGeometry x="45" y="70" width="9.19" height="145" as="geometry" />
        </mxCell>
        <mxCell id="HwkZCbod2WU7sO3Ijh1S-27" value="" style="endArrow=classic;startArrow=classic;html=1;rounded=0;entryX=0.8;entryY=0.577;entryDx=0;entryDy=0;entryPerimeter=0;exitX=-0.084;exitY=0.199;exitDx=0;exitDy=0;exitPerimeter=0;" parent="7baba1c4bc27f4b0-2" source="HwkZCbod2WU7sO3Ijh1S-26" edge="1">
          <mxGeometry width="50" height="50" relative="1" as="geometry">
            <mxPoint x="369" y="134" as="sourcePoint" />
            <mxPoint x="55" y="134.04700000000003" as="targetPoint" />
          </mxGeometry>
        </mxCell>
        <mxCell id="HwkZCbod2WU7sO3Ijh1S-28" value="SPDP" style="edgeLabel;html=1;align=center;verticalAlign=middle;resizable=0;points=[];" parent="HwkZCbod2WU7sO3Ijh1S-27" vertex="1" connectable="0">
          <mxGeometry x="0.0523" y="-1" relative="1" as="geometry">
            <mxPoint as="offset" />
          </mxGeometry>
        </mxCell>
        <mxCell id="HwkZCbod2WU7sO3Ijh1S-29" value="" style="endArrow=classic;startArrow=classic;html=1;rounded=0;" parent="7baba1c4bc27f4b0-2" edge="1">
          <mxGeometry width="50" height="50" relative="1" as="geometry">
            <mxPoint x="366" y="161" as="sourcePoint" />
            <mxPoint x="54.99666666666661" y="161.99999999999994" as="targetPoint" />
          </mxGeometry>
        </mxCell>
        <mxCell id="HwkZCbod2WU7sO3Ijh1S-30" value="SEDP" style="edgeLabel;html=1;align=center;verticalAlign=middle;resizable=0;points=[];" parent="HwkZCbod2WU7sO3Ijh1S-29" vertex="1" connectable="0">
          <mxGeometry x="0.0523" y="-1" relative="1" as="geometry">
            <mxPoint as="offset" />
          </mxGeometry>
        </mxCell>
        <mxCell id="HwkZCbod2WU7sO3Ijh1S-8" value="" style="endArrow=classic;html=1;rounded=0;entryX=1.094;entryY=0.038;entryDx=0;entryDy=0;entryPerimeter=0;" parent="7baba1c4bc27f4b0-2" edge="1">
          <mxGeometry width="50" height="50" relative="1" as="geometry">
            <mxPoint x="45" y="200" as="sourcePoint" />
            <mxPoint x="-84.06000000000017" y="200.13600000000008" as="targetPoint" />
          </mxGeometry>
        </mxCell>
        <mxCell id="HwkZCbod2WU7sO3Ijh1S-9" value="发送Guid和Topic信息" style="edgeLabel;html=1;align=center;verticalAlign=middle;resizable=0;points=[];" parent="HwkZCbod2WU7sO3Ijh1S-8" vertex="1" connectable="0">
          <mxGeometry x="-0.1196" relative="1" as="geometry">
            <mxPoint x="-3" as="offset" />
          </mxGeometry>
        </mxCell>
        <mxCell id="HwkZCbod2WU7sO3Ijh1S-10" value="" style="html=1;verticalAlign=bottom;endArrow=block;labelBackgroundColor=none;fontFamily=Verdana;fontSize=12;elbow=vertical;edgeStyle=orthogonalEdgeStyle;curved=1;" parent="7baba1c4bc27f4b0-2" edge="1">
          <mxGeometry x="-0.8447" y="-8" relative="1" as="geometry">
            <mxPoint x="-90.33333333333348" y="221" as="sourcePoint" />
            <mxPoint x="-84.99777777777777" y="251" as="targetPoint" />
            <Array as="points">
              <mxPoint x="-35" y="221" />
              <mxPoint x="-35" y="251" />
            </Array>
            <mxPoint as="offset" />
          </mxGeometry>
        </mxCell>
        <mxCell id="HwkZCbod2WU7sO3Ijh1S-12" value="检查发布订阅权限策略" style="edgeLabel;html=1;align=center;verticalAlign=middle;resizable=0;points=[];" parent="HwkZCbod2WU7sO3Ijh1S-10" vertex="1" connectable="0">
          <mxGeometry x="0.0433" y="1" relative="1" as="geometry">
            <mxPoint x="12" y="-1" as="offset" />
          </mxGeometry>
        </mxCell>
        <mxCell id="7baba1c4bc27f4b0-23" value="" style="html=1;verticalAlign=bottom;endArrow=block;labelBackgroundColor=none;fontFamily=Verdana;fontSize=12;" parent="7baba1c4bc27f4b0-2" edge="1">
          <mxGeometry relative="1" as="geometry">
            <mxPoint x="-84" y="272" as="sourcePoint" />
            <mxPoint x="204" y="272" as="targetPoint" />
          </mxGeometry>
        </mxCell>
        <mxCell id="HwkZCbod2WU7sO3Ijh1S-35" value="&lt;span style=&quot;font-family: Verdana; background-color: rgb(251, 251, 251);&quot;&gt;发送Guid白名单&lt;/span&gt;" style="edgeLabel;html=1;align=center;verticalAlign=middle;resizable=0;points=[];" parent="7baba1c4bc27f4b0-23" vertex="1" connectable="0">
          <mxGeometry x="0.0054" y="1" relative="1" as="geometry">
            <mxPoint as="offset" />
          </mxGeometry>
        </mxCell>
        <mxCell id="HwkZCbod2WU7sO3Ijh1S-37" value="" style="html=1;points=[];perimeter=orthogonalPerimeter;rounded=0;shadow=0;comic=0;labelBackgroundColor=none;strokeWidth=1;fontFamily=Verdana;fontSize=12;align=center;" parent="7baba1c4bc27f4b0-2" vertex="1">
          <mxGeometry x="45.41" y="325" width="9.19" height="126" as="geometry" />
        </mxCell>
        <mxCell id="7baba1c4bc27f4b0-8" value="中心服务器" style="shape=umlLifeline;perimeter=lifelinePerimeter;whiteSpace=wrap;html=1;container=1;collapsible=0;recursiveResize=0;outlineConnect=0;rounded=1;shadow=0;comic=0;labelBackgroundColor=none;strokeWidth=1;fontFamily=Verdana;fontSize=12;align=center;" parent="1" vertex="1">
          <mxGeometry x="100" y="80" width="100" height="510" as="geometry" />
        </mxCell>
        <mxCell id="7baba1c4bc27f4b0-9" value="" style="html=1;points=[];perimeter=orthogonalPerimeter;rounded=0;shadow=0;comic=0;labelBackgroundColor=none;strokeWidth=1;fontFamily=Verdana;fontSize=12;align=center;" parent="7baba1c4bc27f4b0-8" vertex="1">
          <mxGeometry x="45" y="172" width="10" height="122" as="geometry" />
        </mxCell>
        <mxCell id="HwkZCbod2WU7sO3Ijh1S-25" value="DDS未授权订阅者" style="shape=umlLifeline;perimeter=lifelinePerimeter;whiteSpace=wrap;html=1;container=1;collapsible=0;recursiveResize=0;outlineConnect=0;rounded=1;shadow=0;comic=0;labelBackgroundColor=none;strokeWidth=1;fontFamily=Verdana;fontSize=12;align=center;" parent="1" vertex="1">
          <mxGeometry x="556" y="80" width="112" height="510" as="geometry" />
        </mxCell>
        <mxCell id="HwkZCbod2WU7sO3Ijh1S-46" value="" style="html=1;verticalAlign=bottom;endArrow=block;labelBackgroundColor=none;fontFamily=Verdana;fontSize=12;elbow=vertical;edgeStyle=orthogonalEdgeStyle;curved=1;" parent="HwkZCbod2WU7sO3Ijh1S-25" edge="1">
          <mxGeometry x="0.0046" y="9" relative="1" as="geometry">
            <mxPoint x="57" y="423" as="sourcePoint" />
            <mxPoint x="62.00380952380965" y="462.43" as="targetPoint" />
            <Array as="points">
              <mxPoint x="123" y="423" />
              <mxPoint x="123" y="462" />
            </Array>
            <mxPoint as="offset" />
          </mxGeometry>
        </mxCell>
        <mxCell id="HwkZCbod2WU7sO3Ijh1S-47" value="&lt;font style=&quot;font-size: 10px;&quot; face=&quot;Verdana&quot;&gt;&lt;span style=&quot;background-color: rgb(251, 251, 251);&quot;&gt;判断报文Guid不在白名单中，&lt;/span&gt;&lt;/font&gt;&lt;div&gt;&lt;font style=&quot;font-size: 10px;&quot; face=&quot;Verdana&quot;&gt;&lt;span style=&quot;background-color: rgb(251, 251, 251);&quot;&gt;舍弃报文&lt;/span&gt;&lt;/font&gt;&lt;/div&gt;" style="edgeLabel;html=1;align=center;verticalAlign=middle;resizable=0;points=[];" parent="HwkZCbod2WU7sO3Ijh1S-46" vertex="1" connectable="0">
          <mxGeometry x="0.0003" y="-2" relative="1" as="geometry">
            <mxPoint x="10" as="offset" />
          </mxGeometry>
        </mxCell>
        <mxCell id="7baba1c4bc27f4b0-22" value="" style="html=1;points=[];perimeter=orthogonalPerimeter;rounded=0;shadow=0;comic=0;labelBackgroundColor=none;strokeWidth=1;fontFamily=Verdana;fontSize=12;align=center;" parent="HwkZCbod2WU7sO3Ijh1S-25" vertex="1">
          <mxGeometry x="51" y="407" width="10" height="69" as="geometry" />
        </mxCell>
        <mxCell id="HwkZCbod2WU7sO3Ijh1S-26" value="" style="html=1;points=[];perimeter=orthogonalPerimeter;rounded=0;shadow=0;comic=0;labelBackgroundColor=none;strokeWidth=1;fontFamily=Verdana;fontSize=12;align=center;" parent="1" vertex="1">
          <mxGeometry x="607" y="204" width="10" height="50" as="geometry" />
        </mxCell>
      </root>
    </mxGraphModel>
  </diagram>
</mxfile>
